<svg width="600" height="600" viewBox="0 0 600 600" xmlns="http://www.w3.org/2000/svg">
  <defs>
    <radialGradient id="goldFrame" cx="50%" cy="50%" r="50%">
      <stop offset="0%" style="stop-color:#FFD700;stop-opacity:1" />
      <stop offset="30%" style="stop-color:#FFA500;stop-opacity:1" />
      <stop offset="70%" style="stop-color:#FF8C00;stop-opacity:1" />
      <stop offset="100%" style="stop-color:#B8860B;stop-opacity:1" />
    </radialGradient>
    <radialGradient id="innerGold" cx="50%" cy="50%" r="50%">
      <stop offset="0%" style="stop-color:#FFFF99;stop-opacity:1" />
      <stop offset="50%" style="stop-color:#FFD700;stop-opacity:1" />
      <stop offset="100%" style="stop-color:#DAA520;stop-opacity:1" />
    </radialGradient>
    <filter id="frameGlow">
      <feGaussianBlur stdDeviation="4" result="coloredBlur"/>
      <feMerge> 
        <feMergeNode in="coloredBlur"/>
        <feMergeNode in="SourceGraphic"/> 
      </feMerge>
    </filter>
    <filter id="innerShadow">
      <feOffset dx="0" dy="2"/>
      <feGaussianBlur stdDeviation="3"/>
      <feComposite operator="over"/>
    </filter>
  </defs>
  
  <!-- Outer Ornate Frame -->
  <circle cx="300" cy="300" r="280" fill="none" stroke="url(#goldFrame)" stroke-width="8" filter="url(#frameGlow)"/>
  
  <!-- Decorative Outer Ring -->
  <circle cx="300" cy="300" r="270" fill="none" stroke="url(#innerGold)" stroke-width="4" opacity="0.8"/>
  
  <!-- Ornamental Elements at Cardinal Points -->
  <!-- Top Ornament -->
  <g transform="translate(300,50)">
    <path d="M0,-20 L15,-5 L10,0 L15,5 L0,20 L-15,5 L-10,0 L-15,-5 Z" fill="url(#goldFrame)" filter="url(#frameGlow)"/>
    <circle cx="0" cy="0" r="8" fill="url(#innerGold)"/>
  </g>
  
  <!-- Right Ornament -->
  <g transform="translate(550,300) rotate(90)">
    <path d="M0,-20 L15,-5 L10,0 L15,5 L0,20 L-15,5 L-10,0 L-15,-5 Z" fill="url(#goldFrame)" filter="url(#frameGlow)"/>
    <circle cx="0" cy="0" r="8" fill="url(#innerGold)"/>
  </g>
  
  <!-- Bottom Ornament -->
  <g transform="translate(300,550) rotate(180)">
    <path d="M0,-20 L15,-5 L10,0 L15,5 L0,20 L-15,5 L-10,0 L-15,-5 Z" fill="url(#goldFrame)" filter="url(#frameGlow)"/>
    <circle cx="0" cy="0" r="8" fill="url(#innerGold)"/>
  </g>
  
  <!-- Left Ornament -->
  <g transform="translate(50,300) rotate(270)">
    <path d="M0,-20 L15,-5 L10,0 L15,5 L0,20 L-15,5 L-10,0 L-15,-5 Z" fill="url(#goldFrame)" filter="url(#frameGlow)"/>
    <circle cx="0" cy="0" r="8" fill="url(#innerGold)"/>
  </g>
  
  <!-- Decorative Corner Elements -->
  <!-- Top-Right -->
  <g transform="translate(424,176) rotate(45)">
    <ellipse cx="0" cy="0" rx="12" ry="6" fill="url(#goldFrame)" opacity="0.7"/>
  </g>
  
  <!-- Bottom-Right -->
  <g transform="translate(424,424) rotate(135)">
    <ellipse cx="0" cy="0" rx="12" ry="6" fill="url(#goldFrame)" opacity="0.7"/>
  </g>
  
  <!-- Bottom-Left -->
  <g transform="translate(176,424) rotate(225)">
    <ellipse cx="0" cy="0" rx="12" ry="6" fill="url(#goldFrame)" opacity="0.7"/>
  </g>
  
  <!-- Top-Left -->
  <g transform="translate(176,176) rotate(315)">
    <ellipse cx="0" cy="0" rx="12" ry="6" fill="url(#goldFrame)" opacity="0.7"/>
  </g>
  
  <!-- Inner Decorative Ring -->
  <circle cx="300" cy="300" r="240" fill="none" stroke="url(#goldFrame)" stroke-width="2" opacity="0.6"/>
  
  <!-- Small Decorative Gems -->
  <circle cx="300" cy="80" r="4" fill="#00FFFF" opacity="0.8" filter="url(#frameGlow)"/>
  <circle cx="520" cy="300" r="4" fill="#00FFFF" opacity="0.8" filter="url(#frameGlow)"/>
  <circle cx="300" cy="520" r="4" fill="#00FFFF" opacity="0.8" filter="url(#frameGlow)"/>
  <circle cx="80" cy="300" r="4" fill="#00FFFF" opacity="0.8" filter="url(#frameGlow)"/>
</svg>